<svg width="1440" height="778" viewBox="0 0 1440 778" fill="none" xmlns="http://www.w3.org/2000/svg">
<g clip-path="url(#clip0_9_80)">
<rect width="1440" height="778" fill="#F1F8F1"/>
<path d="M-87 665H863.38C868.868 665 874.251 663.494 878.943 660.647L1288.56 412.085C1297.53 406.646 1303 396.922 1303 386.438V-81" stroke="#9ACD32" stroke-width="30"/>
<circle cx="1303" cy="67" r="25" fill="white" stroke="#9ACD32" stroke-width="10"/>
<path d="M1285.51 114.684C1285.51 116.84 1284.85 118.492 1283.54 119.641C1282.23 120.789 1280.29 121.363 1277.74 121.363C1275.18 121.363 1273.25 120.789 1271.94 119.641C1270.63 118.492 1269.98 116.844 1269.98 114.695V103.551H1274.5V114.438C1274.5 115.648 1274.76 116.551 1275.27 117.145C1275.77 117.738 1276.6 118.035 1277.74 118.035C1278.86 118.035 1279.68 117.75 1280.2 117.18C1280.72 116.609 1280.98 115.695 1280.98 114.438V103.551H1285.51V114.684ZM1302.45 115.199H1292.8C1292.86 116.23 1293.25 117.02 1293.97 117.566C1294.7 118.113 1295.76 118.387 1297.17 118.387C1298.06 118.387 1298.92 118.227 1299.76 117.906C1300.59 117.586 1301.25 117.242 1301.74 116.875H1302.21V120.262C1301.25 120.645 1300.36 120.922 1299.51 121.094C1298.67 121.266 1297.73 121.352 1296.71 121.352C1294.07 121.352 1292.05 120.758 1290.64 119.57C1289.23 118.383 1288.53 116.691 1288.53 114.496C1288.53 112.324 1289.2 110.605 1290.52 109.34C1291.86 108.066 1293.69 107.43 1296.01 107.43C1298.15 107.43 1299.76 107.973 1300.84 109.059C1301.91 110.137 1302.45 111.691 1302.45 113.723V115.199ZM1298.26 112.727C1298.23 111.844 1298.02 111.18 1297.6 110.734C1297.19 110.289 1296.54 110.066 1295.67 110.066C1294.86 110.066 1294.19 110.277 1293.66 110.699C1293.14 111.121 1292.85 111.797 1292.79 112.727H1298.26ZM1318.65 121H1314.41V114.473C1314.41 113.941 1314.38 113.414 1314.32 112.891C1314.27 112.359 1314.18 111.969 1314.04 111.719C1313.89 111.43 1313.66 111.219 1313.35 111.086C1313.05 110.953 1312.64 110.887 1312.1 110.887C1311.71 110.887 1311.32 110.949 1310.93 111.074C1310.54 111.199 1310.11 111.398 1309.65 111.672V121H1305.43V107.84H1309.65V109.293C1310.4 108.707 1311.12 108.258 1311.8 107.945C1312.5 107.633 1313.27 107.477 1314.11 107.477C1315.54 107.477 1316.64 107.891 1317.44 108.719C1318.25 109.547 1318.65 110.785 1318.65 112.434V121ZM1335.99 114.426C1335.99 116.59 1335.36 118.297 1334.09 119.547C1332.84 120.789 1331.07 121.41 1328.79 121.41C1326.5 121.41 1324.73 120.789 1323.46 119.547C1322.21 118.297 1321.58 116.59 1321.58 114.426C1321.58 112.246 1322.21 110.535 1323.48 109.293C1324.75 108.051 1326.52 107.43 1328.79 107.43C1331.08 107.43 1332.86 108.055 1334.11 109.305C1335.36 110.555 1335.99 112.262 1335.99 114.426ZM1330.8 117.625C1331.07 117.289 1331.28 116.887 1331.41 116.418C1331.55 115.941 1331.62 115.285 1331.62 114.449C1331.62 113.676 1331.55 113.027 1331.41 112.504C1331.27 111.98 1331.07 111.562 1330.82 111.25C1330.57 110.93 1330.27 110.703 1329.92 110.57C1329.57 110.438 1329.19 110.371 1328.79 110.371C1328.38 110.371 1328.02 110.426 1327.7 110.535C1327.38 110.645 1327.08 110.863 1326.79 111.191C1326.54 111.496 1326.33 111.914 1326.17 112.445C1326.02 112.977 1325.95 113.645 1325.95 114.449C1325.95 115.168 1326.02 115.793 1326.15 116.324C1326.28 116.848 1326.48 117.27 1326.73 117.59C1326.98 117.895 1327.28 118.117 1327.62 118.258C1327.98 118.398 1328.38 118.469 1328.82 118.469C1329.2 118.469 1329.57 118.406 1329.91 118.281C1330.26 118.148 1330.56 117.93 1330.8 117.625Z" fill="black"/>
<circle cx="831" cy="664" r="25" fill="white" stroke="#9ACD32" stroke-width="10"/>
<path d="M776.195 712.516C776.195 714.234 775.465 715.633 774.004 716.711C772.551 717.781 770.574 718.316 768.074 718.316C766.629 718.316 765.367 718.191 764.289 717.941C763.219 717.684 762.215 717.359 761.277 716.969V712.785H761.77C762.699 713.527 763.738 714.098 764.887 714.496C766.043 714.895 767.152 715.094 768.215 715.094C768.488 715.094 768.848 715.07 769.293 715.023C769.738 714.977 770.102 714.898 770.383 714.789C770.727 714.648 771.008 714.473 771.227 714.262C771.453 714.051 771.566 713.738 771.566 713.324C771.566 712.941 771.402 712.613 771.074 712.34C770.754 712.059 770.281 711.844 769.656 711.695C769 711.539 768.305 711.395 767.57 711.262C766.844 711.121 766.16 710.945 765.52 710.734C764.051 710.258 762.992 709.613 762.344 708.801C761.703 707.98 761.383 706.965 761.383 705.754C761.383 704.129 762.109 702.805 763.562 701.781C765.023 700.75 766.898 700.234 769.188 700.234C770.336 700.234 771.469 700.348 772.586 700.574C773.711 700.793 774.684 701.07 775.504 701.406V705.426H775.023C774.32 704.863 773.457 704.395 772.434 704.02C771.418 703.637 770.379 703.445 769.316 703.445C768.941 703.445 768.566 703.473 768.191 703.527C767.824 703.574 767.469 703.668 767.125 703.809C766.82 703.926 766.559 704.105 766.34 704.348C766.121 704.582 766.012 704.852 766.012 705.156C766.012 705.617 766.188 705.973 766.539 706.223C766.891 706.465 767.555 706.688 768.531 706.891C769.172 707.023 769.785 707.152 770.371 707.277C770.965 707.402 771.602 707.574 772.281 707.793C773.617 708.23 774.602 708.828 775.234 709.586C775.875 710.336 776.195 711.312 776.195 712.516ZM792.273 718H788.031V711.473C788.031 710.941 788.004 710.414 787.949 709.891C787.895 709.359 787.801 708.969 787.668 708.719C787.512 708.43 787.281 708.219 786.977 708.086C786.68 707.953 786.262 707.887 785.723 707.887C785.34 707.887 784.949 707.949 784.551 708.074C784.16 708.199 783.734 708.398 783.273 708.672V718H779.055V699.766H783.273V706.293C784.023 705.707 784.742 705.258 785.43 704.945C786.125 704.633 786.895 704.477 787.738 704.477C789.16 704.477 790.27 704.891 791.066 705.719C791.871 706.547 792.273 707.785 792.273 709.434V718ZM800.383 718H796.164V704.84H800.383V718ZM800.5 702.965H796.047V699.766H800.5V702.965ZM817.586 718H813.344V711.473C813.344 710.941 813.316 710.414 813.262 709.891C813.207 709.359 813.113 708.969 812.98 708.719C812.824 708.43 812.594 708.219 812.289 708.086C811.992 707.953 811.574 707.887 811.035 707.887C810.652 707.887 810.262 707.949 809.863 708.074C809.473 708.199 809.047 708.398 808.586 708.672V718H804.367V704.84H808.586V706.293C809.336 705.707 810.055 705.258 810.742 704.945C811.438 704.633 812.207 704.477 813.051 704.477C814.473 704.477 815.582 704.891 816.379 705.719C817.184 706.547 817.586 707.785 817.586 709.434V718ZM825.695 718H821.477V704.84H825.695V718ZM825.812 702.965H821.359V699.766H825.812V702.965ZM842.477 716.488C842.477 717.723 842.301 718.762 841.949 719.605C841.598 720.449 841.105 721.109 840.473 721.586C839.84 722.07 839.074 722.418 838.176 722.629C837.285 722.848 836.277 722.957 835.152 722.957C834.238 722.957 833.336 722.902 832.445 722.793C831.562 722.684 830.797 722.551 830.148 722.395V719.102H830.664C831.18 719.305 831.809 719.488 832.551 719.652C833.293 719.824 833.957 719.91 834.543 719.91C835.324 719.91 835.957 719.836 836.441 719.688C836.934 719.547 837.309 719.344 837.566 719.078C837.809 718.828 837.984 718.508 838.094 718.117C838.203 717.727 838.258 717.258 838.258 716.711V716.465C837.75 716.879 837.188 717.207 836.57 717.449C835.953 717.691 835.266 717.812 834.508 717.812C832.664 717.812 831.242 717.258 830.242 716.148C829.242 715.039 828.742 713.352 828.742 711.086C828.742 710 828.895 709.062 829.199 708.273C829.504 707.484 829.934 706.797 830.488 706.211C831.004 705.664 831.637 705.238 832.387 704.934C833.145 704.629 833.918 704.477 834.707 704.477C835.418 704.477 836.062 704.562 836.641 704.734C837.227 704.898 837.758 705.129 838.234 705.426L838.387 704.84H842.477V716.488ZM838.258 713.852V707.887C838.016 707.785 837.719 707.707 837.367 707.652C837.016 707.59 836.699 707.559 836.418 707.559C835.309 707.559 834.477 707.879 833.922 708.52C833.367 709.152 833.09 710.039 833.09 711.18C833.09 712.445 833.324 713.328 833.793 713.828C834.27 714.328 834.973 714.578 835.902 714.578C836.324 714.578 836.738 714.512 837.145 714.379C837.551 714.246 837.922 714.07 838.258 713.852ZM854.43 714.566V711.824C853.859 711.871 853.242 711.938 852.578 712.023C851.914 712.102 851.41 712.195 851.066 712.305C850.645 712.438 850.32 712.633 850.094 712.891C849.875 713.141 849.766 713.473 849.766 713.887C849.766 714.16 849.789 714.383 849.836 714.555C849.883 714.727 850 714.891 850.188 715.047C850.367 715.203 850.582 715.32 850.832 715.398C851.082 715.469 851.473 715.504 852.004 715.504C852.426 715.504 852.852 715.418 853.281 715.246C853.719 715.074 854.102 714.848 854.43 714.566ZM854.43 716.605C854.203 716.777 853.922 716.984 853.586 717.227C853.25 717.469 852.934 717.66 852.637 717.801C852.223 717.988 851.793 718.125 851.348 718.211C850.902 718.305 850.414 718.352 849.883 718.352C848.633 718.352 847.586 717.965 846.742 717.191C845.898 716.418 845.477 715.43 845.477 714.227C845.477 713.266 845.691 712.48 846.121 711.871C846.551 711.262 847.16 710.781 847.949 710.43C848.73 710.078 849.699 709.828 850.855 709.68C852.012 709.531 853.211 709.422 854.453 709.352V709.281C854.453 708.555 854.156 708.055 853.562 707.781C852.969 707.5 852.094 707.359 850.938 707.359C850.242 707.359 849.5 707.484 848.711 707.734C847.922 707.977 847.355 708.164 847.012 708.297H846.625V705.121C847.07 705.004 847.793 704.867 848.793 704.711C849.801 704.547 850.809 704.465 851.816 704.465C854.215 704.465 855.945 704.836 857.008 705.578C858.078 706.312 858.613 707.469 858.613 709.047V718H854.43V716.605ZM883.48 704.84L879.402 718H874.926L872.242 709.129L869.605 718H865.07L861.027 704.84H865.457L867.707 713.91L870.52 704.84H874.258L876.93 713.91L879.145 704.84H883.48ZM893.969 714.566V711.824C893.398 711.871 892.781 711.938 892.117 712.023C891.453 712.102 890.949 712.195 890.605 712.305C890.184 712.438 889.859 712.633 889.633 712.891C889.414 713.141 889.305 713.473 889.305 713.887C889.305 714.16 889.328 714.383 889.375 714.555C889.422 714.727 889.539 714.891 889.727 715.047C889.906 715.203 890.121 715.32 890.371 715.398C890.621 715.469 891.012 715.504 891.543 715.504C891.965 715.504 892.391 715.418 892.82 715.246C893.258 715.074 893.641 714.848 893.969 714.566ZM893.969 716.605C893.742 716.777 893.461 716.984 893.125 717.227C892.789 717.469 892.473 717.66 892.176 717.801C891.762 717.988 891.332 718.125 890.887 718.211C890.441 718.305 889.953 718.352 889.422 718.352C888.172 718.352 887.125 717.965 886.281 717.191C885.438 716.418 885.016 715.43 885.016 714.227C885.016 713.266 885.23 712.48 885.66 711.871C886.09 711.262 886.699 710.781 887.488 710.43C888.27 710.078 889.238 709.828 890.395 709.68C891.551 709.531 892.75 709.422 893.992 709.352V709.281C893.992 708.555 893.695 708.055 893.102 707.781C892.508 707.5 891.633 707.359 890.477 707.359C889.781 707.359 889.039 707.484 888.25 707.734C887.461 707.977 886.895 708.164 886.551 708.297H886.164V705.121C886.609 705.004 887.332 704.867 888.332 704.711C889.34 704.547 890.348 704.465 891.355 704.465C893.754 704.465 895.484 704.836 896.547 705.578C897.617 706.312 898.152 707.469 898.152 709.047V718H893.969V716.605Z" fill="black"/>
<circle cx="1303" cy="377" r="25" fill="white" stroke="#9ACD32" stroke-width="10"/>
<path d="M1277.88 416.926H1272.43V431H1267.93V416.926H1262.48V413.551H1277.88V416.926ZM1293.8 424.426C1293.8 426.59 1293.17 428.297 1291.91 429.547C1290.65 430.789 1288.88 431.41 1286.6 431.41C1284.32 431.41 1282.54 430.789 1281.28 429.547C1280.02 428.297 1279.39 426.59 1279.39 424.426C1279.39 422.246 1280.02 420.535 1281.29 419.293C1282.56 418.051 1284.33 417.43 1286.6 417.43C1288.89 417.43 1290.67 418.055 1291.92 419.305C1293.18 420.555 1293.8 422.262 1293.8 424.426ZM1288.61 427.625C1288.89 427.289 1289.09 426.887 1289.22 426.418C1289.36 425.941 1289.43 425.285 1289.43 424.449C1289.43 423.676 1289.36 423.027 1289.22 422.504C1289.08 421.98 1288.89 421.562 1288.64 421.25C1288.39 420.93 1288.09 420.703 1287.73 420.57C1287.38 420.438 1287 420.371 1286.6 420.371C1286.19 420.371 1285.83 420.426 1285.51 420.535C1285.2 420.645 1284.89 420.863 1284.61 421.191C1284.35 421.496 1284.14 421.914 1283.98 422.445C1283.84 422.977 1283.76 423.645 1283.76 424.449C1283.76 425.168 1283.83 425.793 1283.96 426.324C1284.09 426.848 1284.29 427.27 1284.55 427.59C1284.8 427.895 1285.09 428.117 1285.44 428.258C1285.79 428.398 1286.19 428.469 1286.63 428.469C1287.02 428.469 1287.38 428.406 1287.72 428.281C1288.07 428.148 1288.37 427.93 1288.61 427.625ZM1310.8 431H1305.89L1302.2 425.27L1301.05 426.664V431H1296.83V412.766H1301.05V423.652L1305.59 417.84H1310.46L1305.72 423.512L1310.8 431ZM1318.87 426.348L1321.87 417.84H1326.21L1318.89 435.828H1314.32L1316.41 430.906L1311.29 417.84H1315.72L1318.87 426.348ZM1342.02 424.426C1342.02 426.59 1341.38 428.297 1340.12 429.547C1338.86 430.789 1337.09 431.41 1334.81 431.41C1332.53 431.41 1330.75 430.789 1329.49 429.547C1328.23 428.297 1327.6 426.59 1327.6 424.426C1327.6 422.246 1328.23 420.535 1329.5 419.293C1330.77 418.051 1332.54 417.43 1334.81 417.43C1337.11 417.43 1338.88 418.055 1340.13 419.305C1341.39 420.555 1342.02 422.262 1342.02 424.426ZM1336.82 427.625C1337.1 427.289 1337.3 426.887 1337.43 426.418C1337.57 425.941 1337.64 425.285 1337.64 424.449C1337.64 423.676 1337.57 423.027 1337.43 422.504C1337.29 421.98 1337.1 421.562 1336.85 421.25C1336.6 420.93 1336.3 420.703 1335.95 420.57C1335.59 420.438 1335.21 420.371 1334.81 420.371C1334.4 420.371 1334.04 420.426 1333.72 420.535C1333.41 420.645 1333.11 420.863 1332.82 421.191C1332.56 421.496 1332.35 421.914 1332.2 422.445C1332.05 422.977 1331.97 423.645 1331.97 424.449C1331.97 425.168 1332.04 425.793 1332.17 426.324C1332.3 426.848 1332.5 427.27 1332.76 427.59C1333.01 427.895 1333.3 428.117 1333.65 428.258C1334 428.398 1334.4 428.469 1334.84 428.469C1335.23 428.469 1335.59 428.406 1335.93 428.281C1336.29 428.148 1336.58 427.93 1336.82 427.625Z" fill="black"/>
<circle cx="151" cy="664" r="25" fill="white" stroke="#9ACD32" stroke-width="10"/>
<path d="M121.52 718H117.043V706.316L113.809 713.898H110.703L107.469 706.316V718H103.227V700.551H108.453L112.379 709.305L116.293 700.551H121.52V718ZM138.711 712.199H129.055C129.117 713.23 129.508 714.02 130.227 714.566C130.953 715.113 132.02 715.387 133.426 715.387C134.316 715.387 135.18 715.227 136.016 714.906C136.852 714.586 137.512 714.242 137.996 713.875H138.465V717.262C137.512 717.645 136.613 717.922 135.77 718.094C134.926 718.266 133.992 718.352 132.969 718.352C130.328 718.352 128.305 717.758 126.898 716.57C125.492 715.383 124.789 713.691 124.789 711.496C124.789 709.324 125.453 707.605 126.781 706.34C128.117 705.066 129.945 704.43 132.266 704.43C134.406 704.43 136.016 704.973 137.094 706.059C138.172 707.137 138.711 708.691 138.711 710.723V712.199ZM134.516 709.727C134.492 708.844 134.273 708.18 133.859 707.734C133.445 707.289 132.801 707.066 131.926 707.066C131.113 707.066 130.445 707.277 129.922 707.699C129.398 708.121 129.105 708.797 129.043 709.727H134.516ZM154.484 716.488C154.484 717.723 154.309 718.762 153.957 719.605C153.605 720.449 153.113 721.109 152.48 721.586C151.848 722.07 151.082 722.418 150.184 722.629C149.293 722.848 148.285 722.957 147.16 722.957C146.246 722.957 145.344 722.902 144.453 722.793C143.57 722.684 142.805 722.551 142.156 722.395V719.102H142.672C143.188 719.305 143.816 719.488 144.559 719.652C145.301 719.824 145.965 719.91 146.551 719.91C147.332 719.91 147.965 719.836 148.449 719.688C148.941 719.547 149.316 719.344 149.574 719.078C149.816 718.828 149.992 718.508 150.102 718.117C150.211 717.727 150.266 717.258 150.266 716.711V716.465C149.758 716.879 149.195 717.207 148.578 717.449C147.961 717.691 147.273 717.812 146.516 717.812C144.672 717.812 143.25 717.258 142.25 716.148C141.25 715.039 140.75 713.352 140.75 711.086C140.75 710 140.902 709.062 141.207 708.273C141.512 707.484 141.941 706.797 142.496 706.211C143.012 705.664 143.645 705.238 144.395 704.934C145.152 704.629 145.926 704.477 146.715 704.477C147.426 704.477 148.07 704.562 148.648 704.734C149.234 704.898 149.766 705.129 150.242 705.426L150.395 704.84H154.484V716.488ZM150.266 713.852V707.887C150.023 707.785 149.727 707.707 149.375 707.652C149.023 707.59 148.707 707.559 148.426 707.559C147.316 707.559 146.484 707.879 145.93 708.52C145.375 709.152 145.098 710.039 145.098 711.18C145.098 712.445 145.332 713.328 145.801 713.828C146.277 714.328 146.98 714.578 147.91 714.578C148.332 714.578 148.746 714.512 149.152 714.379C149.559 714.246 149.93 714.07 150.266 713.852ZM171.582 718H167.363V716.547C166.582 717.141 165.867 717.594 165.219 717.906C164.57 718.211 163.797 718.363 162.898 718.363C161.445 718.363 160.324 717.945 159.535 717.109C158.754 716.273 158.363 715.039 158.363 713.406V704.84H162.605V711.367C162.605 712.031 162.625 712.586 162.664 713.031C162.711 713.469 162.812 713.832 162.969 714.121C163.117 714.41 163.34 714.621 163.637 714.754C163.941 714.887 164.363 714.953 164.902 714.953C165.262 714.953 165.66 714.887 166.098 714.754C166.535 714.621 166.957 714.426 167.363 714.168V704.84H171.582V718ZM185.117 708.859H184.742C184.562 708.797 184.273 708.75 183.875 708.719C183.477 708.688 183.145 708.672 182.879 708.672C182.277 708.672 181.746 708.711 181.285 708.789C180.824 708.867 180.328 709 179.797 709.188V718H175.578V704.84H179.797V706.773C180.727 705.977 181.535 705.449 182.223 705.191C182.91 704.926 183.543 704.793 184.121 704.793C184.27 704.793 184.438 704.797 184.625 704.805C184.812 704.812 184.977 704.824 185.117 704.84V708.859ZM200.961 711.426C200.961 713.59 200.328 715.297 199.062 716.547C197.805 717.789 196.035 718.41 193.754 718.41C191.473 718.41 189.699 717.789 188.434 716.547C187.176 715.297 186.547 713.59 186.547 711.426C186.547 709.246 187.18 707.535 188.445 706.293C189.719 705.051 191.488 704.43 193.754 704.43C196.051 704.43 197.824 705.055 199.074 706.305C200.332 707.555 200.961 709.262 200.961 711.426ZM195.77 714.625C196.043 714.289 196.246 713.887 196.379 713.418C196.52 712.941 196.59 712.285 196.59 711.449C196.59 710.676 196.52 710.027 196.379 709.504C196.238 708.98 196.043 708.562 195.793 708.25C195.543 707.93 195.242 707.703 194.891 707.57C194.539 707.438 194.16 707.371 193.754 707.371C193.348 707.371 192.984 707.426 192.664 707.535C192.352 707.645 192.051 707.863 191.762 708.191C191.504 708.496 191.297 708.914 191.141 709.445C190.992 709.977 190.918 710.645 190.918 711.449C190.918 712.168 190.984 712.793 191.117 713.324C191.25 713.848 191.445 714.27 191.703 714.59C191.953 714.895 192.25 715.117 192.594 715.258C192.945 715.398 193.344 715.469 193.789 715.469C194.172 715.469 194.535 715.406 194.879 715.281C195.23 715.148 195.527 714.93 195.77 714.625Z" fill="black"/>
</g>
<defs>
<clipPath id="clip0_9_80">
<rect width="1440" height="778" fill="white"/>
</clipPath>
</defs>
</svg>
