<svg width="31" height="28" viewBox="0 0 31 28" fill="none" xmlns="http://www.w3.org/2000/svg">
<path d="M1.99292 9.84376L10.2743 1.61875C10.4958 1.4 11.0715 1.09375 11.7801 1.09375C12.2672 1.05 22.8515 1.09375 22.8515 1.09375C23.6043 1.1375 24.1801 1.575 24.3572 1.88125L26.7486 7C27.2358 7.35 28.2543 8.05001 28.2101 8.96876L28.0329 21.2188C28.0329 21.875 27.5015 22.4 26.8372 22.4H26.2172V23.625C26.2172 23.625 27.0143 24.5875 28.9629 26.9063H10.7172L3.01149 13.65L1.99292 12.1188V9.84376ZM3.80863 10.5V11.3313L4.65006 11.375V9.8L3.80863 10.5ZM5.22578 9.27501V11.375H6.20006V8.44375L5.22578 9.27501ZM6.77578 7.9625V11.4188L7.83863 11.4625C7.97149 11.4625 8.19292 11.5063 8.23721 11.2V7.21875C8.23721 6.95625 8.10435 6.78125 7.97149 6.9125L6.77578 7.9625ZM11.0715 17.8063V18.9H27.0143L27.0586 17.8063H11.0715ZM18.0686 7.21875L17.6258 3.89375L12.1343 4.1125L11.6472 7.21875H18.0686ZM12.0458 24.15H25.1101V23.0563H12.0901L12.0458 24.15ZM13.6401 14.0438C13.0201 14.0438 12.4886 14.5688 12.4886 15.1813C12.4886 15.7938 13.0201 16.275 13.6401 16.275C14.2601 16.275 14.7472 15.7938 14.7472 15.1813C14.7472 14.5688 14.2601 14.0438 13.6401 14.0438ZM21.5672 10.675H16.2529L18.9101 13.6063L21.5672 10.675ZM25.3315 7.21875L23.9586 4.2L18.7772 3.89375L19.1758 7.21875H25.3315ZM24.0472 14.0438C23.4272 14.0438 22.8958 14.5688 22.8958 15.1813C22.8958 15.7938 23.4272 16.275 24.0472 16.275C24.6672 16.275 25.1543 15.7938 25.1543 15.1813C25.1543 14.5688 24.6672 14.0438 24.0472 14.0438Z" fill="#B8E0B8"/>
</svg>
