<svg xmlns="http://www.w3.org/2000/svg" viewBox="0 0 30 30" width="30" height="30">
	<style>.cls-1{fill:#b8e0b8;fill-rule:evenodd;}</style>
	<path class="cls-1" d="M25.55,21.32l-1.09,1.42A8.93,8.93,0,0,0,23.4,24.6h-.27L30,30H28.2l-2.4-1.89v.09H4.09L1.8,30H0l6.87-5.4H6.6A4,4,0,0,0,6,23.06a8.15,8.15,0,0,0-1.3-1.62A1.8,1.8,0,0,1,3.6,19.8V1.8A1.81,1.81,0,0,1,5.4,0H24.6a1.81,1.81,0,0,1,1.8,1.8v18A1.79,1.79,0,0,1,25.55,21.32ZM6.38,26.4l-.76.6H24.38l-.76-.6Zm2.29-1.8-.76.6H22.09l-.76-.6Zm9.93-1.8V21H11.4v1.8Zm6-21H5.4v18H24.6ZM8.4,3H21.6a1.81,1.81,0,0,1,1.8,1.8V15H6.6V4.8A1.81,1.81,0,0,1,8.4,3Zm13.2,9.6V7.8H8.4v4.8ZM10.68,16.2l1.8,2.4H8.4a1.81,1.81,0,0,1-1.8-1.8v-.6h4.08Zm10.92,0h1.8v.6a1.81,1.81,0,0,1-1.8,1.8H17.4l1.68-2.4Z"/>
</svg>