<svg width="30" height="30" viewBox="0 0 30 30" fill="none" xmlns="http://www.w3.org/2000/svg">
<path fill-rule="evenodd" clip-rule="evenodd" d="M25.55 21.32L24.46 22.74C24.0334 23.3152 23.6775 23.9397 23.4 24.6H23.13L30 30H28.2L25.8 28.11V28.2H4.09L1.8 30H0L6.87 24.6H6.6C6.50939 24.0505 6.30503 23.526 6 23.06C5.63753 22.4668 5.20065 21.9223 4.7 21.44C4.37677 21.3036 4.10046 21.0757 3.90503 20.7843C3.7096 20.4929 3.60358 20.1508 3.6 19.8V1.8C3.60263 1.32342 3.79311 0.867107 4.13011 0.530109C4.46711 0.193111 4.92342 0.00262584 5.4 0L24.6 0C25.0766 0.00262584 25.5329 0.193111 25.8699 0.530109C26.2069 0.867107 26.3974 1.32342 26.4 1.8V19.8C26.3994 20.1048 26.3211 20.4043 26.1723 20.6703C26.0236 20.9363 25.8094 21.16 25.55 21.32ZM6.38 26.4L5.62 27H24.38L23.62 26.4H6.38ZM8.67 24.6L7.91 25.2H22.09L21.33 24.6H8.67ZM18.6 22.8V21H11.4V22.8H18.6ZM24.6 1.8H5.4V19.8H24.6V1.8ZM8.4 3H21.6C22.0766 3.00263 22.5329 3.19311 22.8699 3.53011C23.2069 3.86711 23.3974 4.32342 23.4 4.8V15H6.6V4.8C6.60263 4.32342 6.79311 3.86711 7.13011 3.53011C7.46711 3.19311 7.92342 3.00263 8.4 3ZM21.6 12.6V7.8H8.4V12.6H21.6ZM10.68 16.2L12.48 18.6H8.4C7.92342 18.5974 7.46711 18.4069 7.13011 18.0699C6.79311 17.7329 6.60263 17.2766 6.6 16.8V16.2H10.68ZM21.6 16.2H23.4V16.8C23.3974 17.2766 23.2069 17.7329 22.8699 18.0699C22.5329 18.4069 22.0766 18.5974 21.6 18.6H17.4L19.08 16.2H21.6Z" fill="#B8E0B8" fill-opacity="0.4"/>
</svg>
