<svg xmlns="http://www.w3.org/2000/svg" viewBox="0 0 30.01 24.03" width="31" height="25">
	<style>.cls-1{fill:#b8e0b8;fill-rule:evenodd;}</style>
	<path class="cls-1" d="M27.62,4.94,7.94.1A3.25,3.25,0,0,0,4,2.19L.11,15.48a2.93,2.93,0,0,0,2.28,3.61l19.68,4.84A3.26,3.26,0,0,0,26,21.84L29.9,8.55A2.93,2.93,0,0,0,27.62,4.94ZM27.55,9,24.22,20.38a2.18,2.18,0,0,1-2.63,1.4L4,17.45A2,2,0,0,1,2.46,15L5.79,3.65a2.18,2.18,0,0,1,2.63-1.4L26,6.58A2,2,0,0,1,27.55,9ZM13.32,4.48,8.14,3.2a1.08,1.08,0,0,0-1.31.7L3.5,15.3a1,1,0,0,0,.75,1.2l9.33,2.29a1.08,1.08,0,0,0,1.31-.69L14.08,5.68A1,1,0,0,0,13.32,4.48Z"/>
</svg>